<svg width="960" height="300" viewBox="0 0 960 300" fill="none" xmlns="http://www.w3.org/2000/svg">
  <defs>
    <linearGradient id="bg2" x1="0" y1="0" x2="1" y2="1">
      <stop offset="0" stop-color="#0a1116"/>
      <stop offset="1" stop-color="#05080b"/>
    </linearGradient>
    <linearGradient id="roll2" x1="0" y1="0" x2="0" y2="1">
      <stop offset="0" stop-color="#9ff5c7" stop-opacity="0"/>
      <stop offset="0.42" stop-color="#9ff5c7" stop-opacity="0.03"/>
      <stop offset="0.5" stop-color="#9ff5c7" stop-opacity="0.07"/>
      <stop offset="0.58" stop-color="#9ff5c7" stop-opacity="0.03"/>
      <stop offset="1" stop-color="#9ff5c7" stop-opacity="0"/>
    </linearGradient>
    <radialGradient id="vig2" cx="50%" cy="42%" r="75%">
      <stop offset="58%" stop-color="#000000" stop-opacity="0"/>
      <stop offset="100%" stop-color="#000000" stop-opacity="0.48"/>
    </radialGradient>
    <linearGradient id="glass2" x1="0" y1="0" x2="1" y2="1">
      <stop offset="0" stop-color="#ffffff" stop-opacity="0.07"/>
      <stop offset="28%" stop-color="#ffffff" stop-opacity="0.018"/>
      <stop offset="55%" stop-color="#ffffff" stop-opacity="0"/>
    </linearGradient>
    <pattern id="scan2" width="4" height="3" patternUnits="userSpaceOnUse">
      <line x1="0" y1="0.5" x2="4" y2="0.5" stroke="#000000" stroke-opacity="0.22" stroke-width="1"/>
    </pattern>
    <pattern id="dots2" width="22" height="22" patternUnits="userSpaceOnUse"><rect x="10" y="10" width="1.6" height="1.6" fill="#58f0a8" fill-opacity="0.05"/></pattern>
    <clipPath id="pc"><rect x="0" y="0" width="960" height="300" rx="10"/></clipPath>
    <clipPath id="waveClip"><rect x="742" y="72" width="186" height="80"/></clipPath>
  </defs>
  <rect width="960" height="300" rx="10" fill="url(#bg2)"/>
  <g clip-path="url(#pc)">
    <rect x="0" y="-300" width="960" height="300" fill="url(#roll2)">
      <animateTransform attributeName="transform" type="translate" from="0 0" to="0 600" dur="9s" repeatCount="indefinite"/>
    </rect>
    <rect width="960" height="300" fill="url(#dots2)"/>
    <g font-family="Consolas, 'Courier New', monospace">
<rect x="16" y="16" width="478" height="268" rx="8" fill="#0d151c" stroke="#22313c"/>
<rect x="16" y="16" width="478" height="40" rx="8" fill="#0f1a22"/>
<rect x="16" y="36" width="478" height="20" fill="#0f1a22"/>
<line x1="16" y1="56" x2="494" y2="56" stroke="#22313c"/>
<circle cx="452" cy="36" r="3" fill="#126b47"/><circle cx="464" cy="36" r="3" fill="#2bbf7d"/><circle cx="476" cy="36" r="3" fill="#58f0a8"/>
<g transform="translate(32,32)">
<rect x="0" y="0" width="12" height="3" fill="#58f0a8"/>
<rect x="0" y="4.5" width="12" height="3" fill="#2bbf7d"/>
<rect x="0" y="9" width="12" height="3" fill="#126b47"/>
</g>
<text x="56" y="43" font-size="13" fill="#e6edf3" letter-spacing="2">STACK</text>

<rect x="32" y="70" width="138" height="26" rx="4" fill="#0a1116" stroke="#22313c"/>
<text x="101" y="87" text-anchor="middle" font-size="11" fill="#e6edf3">JAVASCRIPT</text>
<rect x="184" y="70" width="138" height="26" rx="4" fill="#0a1116" stroke="#22313c"/>
<text x="253" y="87" text-anchor="middle" font-size="11" fill="#e6edf3">TYPESCRIPT</text>
<rect x="336" y="70" width="138" height="26" rx="4" fill="#0a1116" stroke="#22313c"/>
<text x="405" y="87" text-anchor="middle" font-size="11" fill="#e6edf3">PYTHON</text>
<rect x="32" y="106" width="138" height="26" rx="4" fill="#0a1116" stroke="#22313c"/>
<text x="101" y="123" text-anchor="middle" font-size="11" fill="#e6edf3">VUE / NUXT</text>
<rect x="184" y="106" width="138" height="26" rx="4" fill="#0a1116" stroke="#22313c"/>
<text x="253" y="123" text-anchor="middle" font-size="11" fill="#e6edf3">NODE / API</text>
<rect x="336" y="106" width="138" height="26" rx="4" fill="#0a1116" stroke="#22313c"/>
<text x="405" y="123" text-anchor="middle" font-size="11" fill="#e6edf3">REACT</text>
<rect x="32" y="142" width="138" height="26" rx="4" fill="#0a1116" stroke="#22313c"/>
<text x="101" y="159" text-anchor="middle" font-size="11" fill="#e6edf3">POSTGRESQL</text>
<rect x="184" y="142" width="138" height="26" rx="4" fill="#0a1116" stroke="#22313c"/>
<text x="253" y="159" text-anchor="middle" font-size="11" fill="#e6edf3">MONGODB</text>
<rect x="336" y="142" width="138" height="26" rx="4" fill="#0a1116" stroke="#22313c"/>
<text x="405" y="159" text-anchor="middle" font-size="11" fill="#e6edf3">REDIS</text>
<rect x="32" y="178" width="138" height="26" rx="4" fill="#0a1116" stroke="#22313c"/>
<text x="101" y="195" text-anchor="middle" font-size="11" fill="#e6edf3">DOCKER</text>
<rect x="184" y="178" width="138" height="26" rx="4" fill="#0a1116" stroke="#22313c"/>
<text x="253" y="195" text-anchor="middle" font-size="11" fill="#e6edf3">KUBERNETES</text>
<rect x="336" y="178" width="138" height="26" rx="4" fill="#0a1116" stroke="#22313c"/>
<text x="405" y="195" text-anchor="middle" font-size="11" fill="#e6edf3">AWS / CLOUD</text>
<rect x="32" y="214" width="138" height="26" rx="4" fill="#0a1116" stroke="#22313c"/>
<text x="101" y="231" text-anchor="middle" font-size="11" fill="#e6edf3">LINUX</text>
<rect x="184" y="214" width="138" height="26" rx="4" fill="#0a1116" stroke="#22313c"/>
<text x="253" y="231" text-anchor="middle" font-size="11" fill="#e6edf3">AI AGENTS</text>
<rect x="336" y="214" width="138" height="26" rx="4" fill="#0a1116" stroke="#22313c"/>
<text x="405" y="231" text-anchor="middle" font-size="11" fill="#e6edf3">GIT</text>
<text x="32" y="268" font-size="11" fill="#5b6a77">15 MODULES LOADED<tspan fill="#58f0a8">█<animate attributeName="fill-opacity" values="1;1;0;0" dur="1s" repeatCount="indefinite"/></tspan></text>

<rect x="510" y="16" width="200" height="268" rx="8" fill="#0d151c" stroke="#22313c"/>
<rect x="510" y="16" width="200" height="40" rx="8" fill="#0f1a22"/>
<rect x="510" y="36" width="200" height="20" fill="#0f1a22"/>
<line x1="510" y1="56" x2="710" y2="56" stroke="#22313c"/>
<circle cx="668" cy="36" r="3" fill="#126b47"/><circle cx="680" cy="36" r="3" fill="#2bbf7d"/><circle cx="692" cy="36" r="3" fill="#58f0a8"/>
<g transform="translate(526,32)">
<rect x="0.5" y="0.5" width="11" height="11" fill="none" stroke="#2bbf7d"/>
<rect x="5" y="2.5" width="2" height="4" fill="#58f0a8"/>
<rect x="5" y="5" width="4" height="2" fill="#58f0a8"/>
</g>
<text x="550" y="43" font-size="13" fill="#e6edf3" letter-spacing="2">CHRONO</text>

<circle cx="610" cy="130" r="55" fill="#0a1116" stroke="#22313c" stroke-width="2"/>
<circle cx="610" cy="130" r="48" fill="none" stroke="#1f2a35"/>
<line x1="610" y1="82" x2="610" y2="90" stroke="#3a4a55"/>
<line x1="610" y1="170" x2="610" y2="178" stroke="#3a4a55"/>
<line x1="562" y1="130" x2="570" y2="130" stroke="#3a4a55"/>
<line x1="650" y1="130" x2="658" y2="130" stroke="#3a4a55"/>
<line x1="610" y1="78" x2="610" y2="94" stroke="#5b6a77"/>
<line x1="610" y1="166" x2="610" y2="182" stroke="#5b6a77"/>
<line x1="558" y1="130" x2="574" y2="130" stroke="#5b6a77"/>
<line x1="646" y1="130" x2="662" y2="130" stroke="#5b6a77"/>
<line x1="610" y1="130" x2="610" y2="100" stroke="#e6edf3" stroke-width="4" stroke-linecap="round">
  <animateTransform attributeName="transform" type="rotate" from="106.8 610 130" to="466.8 610 130" dur="43200s" repeatCount="indefinite"/>
</line>
<line x1="610" y1="130" x2="610" y2="88" stroke="#e6edf3" stroke-width="3" stroke-linecap="round">
  <animateTransform attributeName="transform" type="rotate" from="201.5 610 130" to="561.5 610 130" dur="3600s" repeatCount="indefinite"/>
</line>
<line x1="610" y1="130" x2="610" y2="82" stroke="#58f0a8" stroke-width="1.5" stroke-linecap="round">
  <animateTransform attributeName="transform" type="rotate" from="210.0 610 130" to="570.0 610 130" dur="60s" repeatCount="indefinite"/>
</line>
<circle cx="610" cy="130" r="4" fill="#58f0a8"/>
<text x="610" y="222" text-anchor="middle" font-size="16" fill="#e6edf3">15<tspan fill="#58f0a8">:</tspan>33</text>
<text x="610" y="248" text-anchor="middle" font-size="12" fill="#5b6a77">SAT 2026.09.05 // UTC-3</text>

<rect x="726" y="16" width="218" height="268" rx="8" fill="#0d151c" stroke="#22313c"/>
<rect x="726" y="16" width="218" height="40" rx="8" fill="#0f1a22"/>
<rect x="726" y="36" width="218" height="20" fill="#0f1a22"/>
<line x1="726" y1="56" x2="944" y2="56" stroke="#22313c"/>
<circle cx="902" cy="36" r="3" fill="#126b47"/><circle cx="914" cy="36" r="3" fill="#2bbf7d"/><circle cx="926" cy="36" r="3" fill="#58f0a8"/>
<g transform="translate(742,32)">
<rect x="0" y="7" width="2" height="5" fill="#126b47"/>
<rect x="3.33" y="3" width="2" height="9" fill="#58f0a8"/>
<rect x="6.66" y="5" width="2" height="7" fill="#2bbf7d"/>
<rect x="10" y="0" width="2" height="12" fill="#58f0a8"/>
</g>
<text x="766" y="43" font-size="13" fill="#e6edf3" letter-spacing="2">WAVEFORM</text>

<text x="742" y="74" font-size="11" fill="#5b6a77">SIGNAL: <tspan fill="#e6edf3">STABLE</tspan></text>
<circle cx="922" cy="70" r="4" fill="#58f0a8"><animate attributeName="opacity" values="1;0.2;1" dur="1.6s" repeatCount="indefinite"/></circle>
<line x1="742" y1="112" x2="928" y2="112" stroke="#22313c" stroke-dasharray="4 4"/>
<g clip-path="url(#waveClip)">
  <path d="M726,112 Q736,92 746,112 T766,112 T786,112 T806,112 T826,112 T846,112 T866,112 T886,112 T906,112 T926,112 T946,112 T966,112 T986,112 T1006,112" stroke="#58f0a8" stroke-width="2" fill="none">
    <animateTransform attributeName="transform" type="translate" from="0 0" to="-60 0" dur="2.5s" repeatCount="indefinite"/>
  </path>
</g>
<rect x="742" y="232" width="18" height="18" fill="#126b47"/>
<rect x="770" y="224" width="18" height="26" fill="#126b47"/>
<rect x="798" y="216" width="18" height="34" fill="#126b47"/>
<rect x="826" y="210" width="18" height="40" fill="#2bbf7d"/>
<rect x="854" y="202" width="18" height="48" fill="#2bbf7d"/>
<rect x="882" y="194" width="18" height="56" fill="#58f0a8"/>
<rect x="910" y="200" width="18" height="50" fill="#58f0a8"><animate attributeName="opacity" values="1;0.55;1" dur="2.4s" repeatCount="indefinite"/></rect>
<line x1="742" y1="250" x2="928" y2="250" stroke="#22313c"/>
<text x="751" y="263" text-anchor="middle" font-size="9" fill="#5b6a77">20</text>
<text x="779" y="263" text-anchor="middle" font-size="9" fill="#5b6a77">21</text>
<text x="807" y="263" text-anchor="middle" font-size="9" fill="#5b6a77">22</text>
<text x="835" y="263" text-anchor="middle" font-size="9" fill="#5b6a77">23</text>
<text x="863" y="263" text-anchor="middle" font-size="9" fill="#5b6a77">24</text>
<text x="891" y="263" text-anchor="middle" font-size="9" fill="#5b6a77">25</text>
<text x="919" y="263" text-anchor="middle" font-size="9" fill="#5b6a77">26</text>
<text x="835" y="275" text-anchor="middle" font-size="9" fill="#3a4a55">ACTIVITY / YEAR</text>
    </g>
    <rect width="960" height="300" fill="url(#vig2)"/>
    <rect width="960" height="300" fill="url(#glass2)"/>
    <rect width="960" height="300" fill="url(#scan2)" opacity="0.16"/>
  </g>
</svg>
